<?xml version="1.0" encoding="UTF-8" standalone="no"?><svg xmlns="http://www.w3.org/2000/svg" xmlns:xlink="http://www.w3.org/1999/xlink" contentScriptType="application/ecmascript" contentStyleType="text/css" height="800px" preserveAspectRatio="none" style="width:552px;height:800px;" version="1.1" viewBox="0 0 552 800" width="552px" zoomAndPan="magnify"><defs/><g><ellipse cx="115.5023" cy="21.3774" fill="#F8F8F8" rx="44.7193" ry="12.8774" style="stroke: #383838; stroke-width: 0.5;"/><text fill="#000000" font-family="Tahoma, sans-serif" font-size="12" font-weight="bold" lengthAdjust="spacingAndGlyphs" textLength="59" x="86.0023" y="24.8618">Address</text><ellipse cx="115.3099" cy="563.3774" fill="#F8F8F8" rx="35.5269" ry="12.8774" style="stroke: #383838; stroke-width: 0.5;"/><text fill="#000000" font-family="Tahoma, sans-serif" font-size="12" lengthAdjust="spacingAndGlyphs" textLength="46" x="92.3099" y="566.8618">apiCart</text><ellipse cx="115.1236" cy="770.3774" fill="#F8F8F8" rx="46.8406" ry="12.8774" style="stroke: #383838; stroke-width: 0.5;"/><text fill="#000000" font-family="Tahoma, sans-serif" font-size="12" lengthAdjust="spacingAndGlyphs" textLength="62" x="84.1236" y="773.8618">apiFacility</text><ellipse cx="115.1383" cy="279.3774" fill="#F8F8F8" rx="38.3553" ry="12.8774" style="stroke: #383838; stroke-width: 0.5;"/><text fill="#000000" font-family="Tahoma, sans-serif" font-size="12" lengthAdjust="spacingAndGlyphs" textLength="50" x="90.1383" y="282.8618">apiFilter</text><ellipse cx="115.2795" cy="514.6993" fill="#F8F8F8" rx="68.9965" ry="16.1993" style="stroke: #383838; stroke-width: 0.5;"/><text fill="#000000" font-family="Tahoma, sans-serif" font-size="12" lengthAdjust="spacingAndGlyphs" textLength="112" x="59.2795" y="518.1837">apiHistoryBooking</text><ellipse cx="115.1739" cy="233.3774" fill="#F8F8F8" rx="41.8909" ry="12.8774" style="stroke: #383838; stroke-width: 0.5;"/><text fill="#000000" font-family="Tahoma, sans-serif" font-size="12" lengthAdjust="spacingAndGlyphs" textLength="55" x="87.6739" y="236.8618">apiHome</text><ellipse cx="115.1739" cy="655.3774" fill="#F8F8F8" rx="41.8909" ry="12.8774" style="stroke: #383838; stroke-width: 0.5;"/><text fill="#000000" font-family="Tahoma, sans-serif" font-size="12" lengthAdjust="spacingAndGlyphs" textLength="55" x="87.6739" y="658.8618">apiOrder</text><ellipse cx="115.3368" cy="711.6108" fill="#F8F8F8" rx="66.0538" ry="15.6108" style="stroke: #383838; stroke-width: 0.5;"/><text fill="#000000" font-family="Tahoma, sans-serif" font-size="12" lengthAdjust="spacingAndGlyphs" textLength="105" x="62.8368" y="715.0951">apiOrdersDetails</text><ellipse cx="115.0378" cy="417.3774" fill="#F8F8F8" rx="48.2548" ry="12.8774" style="stroke: #383838; stroke-width: 0.5;"/><text fill="#000000" font-family="Tahoma, sans-serif" font-size="12" lengthAdjust="spacingAndGlyphs" textLength="64" x="83.0378" y="420.8618">apiReview</text><ellipse cx="115.3099" cy="609.3774" fill="#F8F8F8" rx="35.5269" ry="12.8774" style="stroke: #383838; stroke-width: 0.5;"/><text fill="#000000" font-family="Tahoma, sans-serif" font-size="12" lengthAdjust="spacingAndGlyphs" textLength="46" x="92.3099" y="612.8618">apiTest</text><ellipse cx="115.2241" cy="371.3774" fill="#F8F8F8" rx="36.9411" ry="12.8774" style="stroke: #383838; stroke-width: 0.5;"/><text fill="#000000" font-family="Tahoma, sans-serif" font-size="12" lengthAdjust="spacingAndGlyphs" textLength="48" x="91.2241" y="374.8618">apiUser</text><ellipse cx="488.3749" cy="566.3774" fill="#F8F8F8" rx="22.0919" ry="12.8774" style="stroke: #383838; stroke-width: 0.5;"/><text fill="#000000" font-family="Tahoma, sans-serif" font-size="12" lengthAdjust="spacingAndGlyphs" textLength="27" x="474.8749" y="569.8618">Cart</text><ellipse cx="309.9572" cy="566.7348" fill="#F8F8F8" rx="59.1742" ry="14.2348" style="stroke: #383838; stroke-width: 0.5;"/><text fill="#000000" font-family="Tahoma, sans-serif" font-size="12" lengthAdjust="spacingAndGlyphs" textLength="88" x="265.9572" y="570.2192">CartController</text><ellipse cx="309.952" cy="314.3774" fill="#F8F8F8" rx="49.669" ry="12.8774" style="stroke: #383838; stroke-width: 0.5;"/><text fill="#000000" font-family="Tahoma, sans-serif" font-size="12" lengthAdjust="spacingAndGlyphs" textLength="66" x="276.952" y="317.8618">connectDB</text><ellipse cx="309.9211" cy="363.5276" fill="#F8F8F8" rx="65.6381" ry="15.5276" style="stroke: #383838; stroke-width: 0.5;"/><text fill="#000000" font-family="Tahoma, sans-serif" font-size="12" lengthAdjust="spacingAndGlyphs" textLength="104" x="257.9211" y="367.012">controllers/home</text><ellipse cx="488.1886" cy="773.3774" fill="#F8F8F8" rx="33.4056" ry="12.8774" style="stroke: #383838; stroke-width: 0.5;"/><text fill="#000000" font-family="Tahoma, sans-serif" font-size="12" lengthAdjust="spacingAndGlyphs" textLength="43" x="466.6886" y="776.8618">Facility</text><ellipse cx="309.9211" cy="773.5276" fill="#F8F8F8" rx="65.6381" ry="15.5276" style="stroke: #383838; stroke-width: 0.5;"/><text fill="#000000" font-family="Tahoma, sans-serif" font-size="12" lengthAdjust="spacingAndGlyphs" textLength="104" x="257.9211" y="777.012">FacilityController</text><ellipse cx="309.5371" cy="215.5508" fill="#F8F8F8" rx="60.7541" ry="14.5508" style="stroke: #383838; stroke-width: 0.5;"/><text fill="#000000" font-family="Tahoma, sans-serif" font-size="12" lengthAdjust="spacingAndGlyphs" textLength="92" x="263.5371" y="219.0352">FilterController</text><ellipse cx="309.8368" cy="414.6108" fill="#F8F8F8" rx="66.0538" ry="15.6108" style="stroke: #383838; stroke-width: 0.5;"/><text fill="#000000" font-family="Tahoma, sans-serif" font-size="12" lengthAdjust="spacingAndGlyphs" textLength="105" x="257.3368" y="418.0951">HistoryController</text><ellipse cx="488.2388" cy="314.3774" fill="#F8F8F8" rx="28.4558" ry="12.8774" style="stroke: #383838; stroke-width: 0.5;"/><text fill="#000000" font-family="Tahoma, sans-serif" font-size="12" lengthAdjust="spacingAndGlyphs" textLength="36" x="470.2388" y="317.8618">Home</text><ellipse cx="309.5474" cy="165.4529" fill="#F8F8F8" rx="62.7644" ry="14.9529" style="stroke: #383838; stroke-width: 0.5;"/><text fill="#000000" font-family="Tahoma, sans-serif" font-size="12" lengthAdjust="spacingAndGlyphs" textLength="97" x="261.0474" y="168.9373">HomeController</text><ellipse cx="488.4381" cy="263.531" fill="#F8F8F8" rx="53.1551" ry="13.031" style="stroke: #383838; stroke-width: 0.5;"/><text fill="#000000" font-family="Tahoma, sans-serif" font-size="12" lengthAdjust="spacingAndGlyphs" textLength="72" x="452.4381" y="267.0154">HomeDetail</text><ellipse cx="115.1531" cy="67.3774" fill="#F8F8F8" rx="29.8701" ry="12.8774" style="stroke: #383838; stroke-width: 0.5;"/><text fill="#000000" font-family="Tahoma, sans-serif" font-size="12" font-weight="bold" lengthAdjust="spacingAndGlyphs" textLength="38" x="96.1531" y="70.8618">hotel</text><ellipse cx="488.1531" cy="164.3774" fill="#F8F8F8" rx="29.8701" ry="12.8774" style="stroke: #383838; stroke-width: 0.5;"/><text fill="#000000" font-family="Tahoma, sans-serif" font-size="12" lengthAdjust="spacingAndGlyphs" textLength="38" x="469.1531" y="167.8618">mailer</text><ellipse cx="309.63" cy="514.6694" fill="#F8F8F8" rx="76.347" ry="17.6694" style="stroke: #383838; stroke-width: 0.5;"/><text fill="#000000" font-family="Tahoma, sans-serif" font-size="12" lengthAdjust="spacingAndGlyphs" textLength="129" x="245.13" y="518.1538">MiddewareController</text><ellipse cx="488.2388" cy="439.3774" fill="#F8F8F8" rx="28.4558" ry="12.8774" style="stroke: #383838; stroke-width: 0.5;"/><text fill="#000000" font-family="Tahoma, sans-serif" font-size="12" lengthAdjust="spacingAndGlyphs" textLength="36" x="470.2388" y="442.8618">Order</text><ellipse cx="309.5474" cy="663.4529" fill="#F8F8F8" rx="62.7644" ry="14.9529" style="stroke: #383838; stroke-width: 0.5;"/><text fill="#000000" font-family="Tahoma, sans-serif" font-size="12" lengthAdjust="spacingAndGlyphs" textLength="97" x="261.0474" y="666.9373">OrderController</text><ellipse cx="488.4381" cy="663.531" fill="#F8F8F8" rx="53.1551" ry="13.031" style="stroke: #383838; stroke-width: 0.5;"/><text fill="#000000" font-family="Tahoma, sans-serif" font-size="12" lengthAdjust="spacingAndGlyphs" textLength="72" x="452.4381" y="667.0154">OrderDetail</text><ellipse cx="309.881" cy="463.3774" fill="#F8F8F8" rx="42.598" ry="12.8774" style="stroke: #383838; stroke-width: 0.5;"/><text fill="#000000" font-family="Tahoma, sans-serif" font-size="12" font-weight="bold" lengthAdjust="spacingAndGlyphs" textLength="56" x="281.881" y="466.8618">OrderId</text><ellipse cx="309.6574" cy="718.2749" fill="#F8F8F8" rx="84.3744" ry="19.2749" style="stroke: #383838; stroke-width: 0.5;"/><text fill="#000000" font-family="Tahoma, sans-serif" font-size="12" lengthAdjust="spacingAndGlyphs" textLength="147" x="236.1574" y="721.7592">OrdersDetailsController</text><ellipse cx="115.1331" cy="114.47" fill="#F8F8F8" rx="55.3501" ry="13.47" style="stroke: #383838; stroke-width: 0.5;"/><text fill="#000000" font-family="Tahoma, sans-serif" font-size="12" font-weight="bold" lengthAdjust="spacingAndGlyphs" textLength="78" x="76.1331" y="117.9544">Regulation</text><ellipse cx="488.1028" cy="214.3774" fill="#F8F8F8" rx="34.8198" ry="12.8774" style="stroke: #383838; stroke-width: 0.5;"/><text fill="#000000" font-family="Tahoma, sans-serif" font-size="12" lengthAdjust="spacingAndGlyphs" textLength="45" x="465.6028" y="217.8618">Review</text><ellipse cx="309.7538" cy="265.6942" fill="#F8F8F8" rx="66.4708" ry="15.6942" style="stroke: #383838; stroke-width: 0.5;"/><text fill="#000000" font-family="Tahoma, sans-serif" font-size="12" lengthAdjust="spacingAndGlyphs" textLength="106" x="256.7538" y="269.1785">ReviewController</text><ellipse cx="115.1331" cy="464.47" fill="#F8F8F8" rx="55.3501" ry="13.47" style="stroke: #383838; stroke-width: 0.5;"/><text fill="#000000" font-family="Tahoma, sans-serif" font-size="12" lengthAdjust="spacingAndGlyphs" textLength="78" x="76.1331" y="467.9544">routes/home</text><ellipse cx="115.2241" cy="187.3774" fill="#F8F8F8" rx="36.9411" ry="12.8774" style="stroke: #383838; stroke-width: 0.5;"/><text fill="#000000" font-family="Tahoma, sans-serif" font-size="12" font-weight="bold" lengthAdjust="spacingAndGlyphs" textLength="48" x="91.2241" y="190.8618">server</text><ellipse cx="309.9572" cy="614.7348" fill="#F8F8F8" rx="59.1742" ry="14.2348" style="stroke: #383838; stroke-width: 0.5;"/><text fill="#000000" font-family="Tahoma, sans-serif" font-size="12" lengthAdjust="spacingAndGlyphs" textLength="88" x="265.9572" y="618.2192">TestController</text><ellipse cx="309.6592" cy="21.3774" fill="#F8F8F8" rx="50.3762" ry="12.8774" style="stroke: #383838; stroke-width: 0.5;"/><text fill="#000000" font-family="Tahoma, sans-serif" font-size="12" font-weight="bold" lengthAdjust="spacingAndGlyphs" textLength="67" x="276.1592" y="24.8618">useFetch</text><ellipse cx="488.2891" cy="116.3774" fill="#F8F8F8" rx="23.5061" ry="12.8774" style="stroke: #383838; stroke-width: 0.5;"/><text fill="#000000" font-family="Tahoma, sans-serif" font-size="12" lengthAdjust="spacingAndGlyphs" textLength="29" x="473.7891" y="119.8618">User</text><ellipse cx="309.7438" cy="115.3922" fill="#F8F8F8" rx="59.9608" ry="14.3922" style="stroke: #383838; stroke-width: 0.5;"/><text fill="#000000" font-family="Tahoma, sans-serif" font-size="12" lengthAdjust="spacingAndGlyphs" textLength="90" x="264.7438" y="118.8765">UserController</text><ellipse cx="115.3663" cy="325.3774" fill="#F8F8F8" rx="51.0833" ry="12.8774" style="stroke: #383838; stroke-width: 0.5;"/><text fill="#000000" font-family="Tahoma, sans-serif" font-size="12" lengthAdjust="spacingAndGlyphs" textLength="68" x="81.3663" y="328.8618">viewEngine</text><ellipse cx="309.7094" cy="67.3774" fill="#F8F8F8" rx="45.4264" ry="12.8774" style="stroke: #383838; stroke-width: 0.5;"/><text fill="#000000" font-family="Tahoma, sans-serif" font-size="12" font-weight="bold" lengthAdjust="spacingAndGlyphs" textLength="60" x="279.7094" y="70.8618">Voucher</text><!--MD5=[305f20f9e2a56f80b2a2c1c2fa3cafe4]
link apiCart to CartController--><path d="M151.143,564.043 C177.363,564.452 214.014,565.023 245.378,565.512 " fill="none" id="apiCart-&gt;CartController" style="stroke: #000000; stroke-width: 0.5;"/><polygon fill="#000000" points="250.765,565.596,241.8278,561.4576,245.7656,565.5189,241.7044,569.4567,250.765,565.596" style="stroke: #000000; stroke-width: 0.5;"/><!--MD5=[21e691a246f4eb814d794ba79e383bb9]
link apiCart to MiddewareController--><path d="M145.102,556.164 C173.493,548.937 217.614,537.706 252.898,528.725 " fill="none" id="apiCart-&gt;MiddewareController" style="stroke: #000000; stroke-width: 0.5;"/><polygon fill="#000000" points="258.036,527.417,248.3271,525.7623,253.1907,528.6512,250.3018,533.5147,258.036,527.417" style="stroke: #000000; stroke-width: 0.5;"/><!--MD5=[97458eb512d2ab6d14f387b86745da3e]
link apiFacility to FacilityController--><path d="M162.391,771.2186 C185.332,771.5761 213.546,772.0158 239.062,772.4134 " fill="none" id="apiFacility-&gt;FacilityController" style="stroke: #000000; stroke-width: 0.5;"/><polygon fill="#000000" points="244.127,772.4924,235.1898,768.354,239.1276,772.4153,235.0664,776.3531,244.127,772.4924" style="stroke: #000000; stroke-width: 0.5;"/><!--MD5=[838da1147c6c5768146c1abc2c3f0905]
link apiFilter to FilterController--><path d="M143.516,270.607 C155.988,266.452 170.932,261.36 184.283,256.5 C202.663,249.809 206.787,246.866 225.283,240.5 C237.914,236.152 251.764,231.83 264.489,228.033 " fill="none" id="apiFilter-&gt;FilterController" style="stroke: #000000; stroke-width: 0.5;"/><polygon fill="#000000" points="269.492,226.55,259.7262,225.2733,264.6983,227.9713,262.0003,232.9433,269.492,226.55" style="stroke: #000000; stroke-width: 0.5;"/><!--MD5=[40f3181f101911546551752229b60fcb]
link apiHistoryBooking to HistoryController--><path d="M158.935,501.939 C167.735,498.34 176.641,493.893 184.283,488.5 C207.206,472.323 201.859,455.943 225.283,440.5 C234.297,434.557 244.745,429.91 255.137,426.297 " fill="none" id="apiHistoryBooking-&gt;HistoryController" style="stroke: #000000; stroke-width: 0.5;"/><polygon fill="#000000" points="259.902,424.709,250.0989,423.7612,255.1587,426.2906,252.6294,431.3504,259.902,424.709" style="stroke: #000000; stroke-width: 0.5;"/><!--MD5=[77f2a248c2db5dde70b4601fdd752498]
link apiHistoryBooking to MiddewareController--><path d="M184.422,514.5 C198.486,514.5 213.427,514.5 227.893,514.5 " fill="none" id="apiHistoryBooking-&gt;MiddewareController" style="stroke: #000000; stroke-width: 0.5;"/><polygon fill="#000000" points="233.199,514.5,224.199,510.5,228.199,514.5,224.199,518.5,233.199,514.5" style="stroke: #000000; stroke-width: 0.5;"/><!--MD5=[aa681bb95e7dbd1affb1f678263a748b]
link apiHome to HomeController--><path d="M145.654,224.333 C157.728,220.367 171.784,215.493 184.283,210.5 C202.933,203.049 206.543,198.723 225.283,191.5 C237.539,186.776 251.048,182.275 263.563,178.386 " fill="none" id="apiHome-&gt;HomeController" style="stroke: #000000; stroke-width: 0.5;"/><polygon fill="#000000" points="268.489,176.871,258.7107,175.694,263.71,178.3411,261.0629,183.3404,268.489,176.871" style="stroke: #000000; stroke-width: 0.5;"/><!--MD5=[cceb4b61424478e3ea17c379b3563ed1]
link apiOrder to MiddewareController--><path d="M152.364,649.177 C163.624,645.76 175.405,640.521 184.283,632.5 C216.898,603.033 192.63,571.925 225.283,542.5 C231.895,536.541 239.819,531.844 248.115,528.144 " fill="none" id="apiOrder-&gt;MiddewareController" style="stroke: #000000; stroke-width: 0.5;"/><polygon fill="#000000" points="252.757,526.189,242.91,525.9967,248.1492,528.1301,246.0158,533.3693,252.757,526.189" style="stroke: #000000; stroke-width: 0.5;"/><!--MD5=[84f98d475358943130a5f4b28f39da14]
link apiOrder to OrderController--><path d="M157.107,657.197 C181.835,658.224 213.966,659.56 242.286,660.737 " fill="none" id="apiOrder-&gt;OrderController" style="stroke: #000000; stroke-width: 0.5;"/><polygon fill="#000000" points="247.527,660.954,238.7004,656.5846,242.5313,660.7469,238.369,664.5777,247.527,660.954" style="stroke: #000000; stroke-width: 0.5;"/><!--MD5=[7de077024354488e8773ee6dcd1805f7]
link apiOrdersDetails to OrdersDetailsController--><path d="M180.65,713.8406 C193.483,714.3073 207.169,714.805 220.641,715.2949 " fill="none" id="apiOrdersDetails-&gt;OrdersDetailsController" style="stroke: #000000; stroke-width: 0.5;"/><polygon fill="#000000" points="225.993,715.4895,217.1453,711.163,220.9963,715.3066,216.8527,719.1577,225.993,715.4895" style="stroke: #000000; stroke-width: 0.5;"/><!--MD5=[a147f435cb2f8e8409525414c636296c]
link apiReview to MiddewareController--><path d="M151.379,426.238 C162.451,429.927 174.371,434.927 184.283,441.5 C206.831,456.454 202.617,471.724 225.283,486.5 C233.463,491.833 242.759,496.248 252.105,499.87 " fill="none" id="apiReview-&gt;MiddewareController" style="stroke: #000000; stroke-width: 0.5;"/><polygon fill="#000000" points="256.991,501.693,249.9581,494.7981,252.3067,499.9444,247.1604,502.293,256.991,501.693" style="stroke: #000000; stroke-width: 0.5;"/><!--MD5=[665ef6388efea9e79bdf5b747030cb57]
link apiReview to ReviewController--><path d="M156.13,410.302 C166.282,406.892 176.507,401.876 184.283,394.5 C220.028,360.59 189.128,324.974 225.283,291.5 C232.398,284.912 241.161,279.993 250.305,276.32 " fill="none" id="apiReview-&gt;ReviewController" style="stroke: #000000; stroke-width: 0.5;"/><polygon fill="#000000" points="255.115,274.511,245.283,273.935,250.435,276.271,248.099,281.423,255.115,274.511" style="stroke: #000000; stroke-width: 0.5;"/><!--MD5=[e1bc28349998517640e8a6068f4a4ba5]
link apiTest to TestController--><path d="M151.143,610.405 C177.471,611.089 214.317,612.046 245.767,612.863 " fill="none" id="apiTest-&gt;TestController" style="stroke: #000000; stroke-width: 0.5;"/><polygon fill="#000000" points="250.765,612.993,241.8708,608.7629,245.7667,612.8644,241.6651,616.7603,250.765,612.993" style="stroke: #000000; stroke-width: 0.5;"/><!--MD5=[b88ba7f7cbaf2a22961aea4be2fb2f0d]
link apiUser to MiddewareController--><path d="M149.252,376.868 C161.432,380.235 174.609,385.687 184.283,394.5 C217.375,424.647 192.151,456.396 225.283,486.5 C231.655,492.29 239.264,496.888 247.258,500.537 " fill="none" id="apiUser-&gt;MiddewareController" style="stroke: #000000; stroke-width: 0.5;"/><polygon fill="#000000" points="252.277,502.689,245.5836,495.4641,247.6822,500.7173,242.429,502.8159,252.277,502.689" style="stroke: #000000; stroke-width: 0.5;"/><!--MD5=[00f24ffdaefd8a19ff0546b191e1170c]
link apiUser to UserController--><path d="M150.346,367.205 C162.669,363.979 175.658,358.341 184.283,348.5 C246.386,277.639 161.94,210.255 225.283,140.5 C232.189,132.894 241.305,127.565 250.973,123.838 " fill="none" id="apiUser-&gt;UserController" style="stroke: #000000; stroke-width: 0.5;"/><polygon fill="#000000" points="255.756,122.135,245.9355,121.3885,251.0462,123.8135,248.6211,128.9242,255.756,122.135" style="stroke: #000000; stroke-width: 0.5;"/><!--MD5=[268ba6d9836c09980e5c050088632068]
link CartController to Cart--><path d="M369.065,566.5 C400.057,566.5 436.645,566.5 460.819,566.5 " fill="none" id="CartController-&gt;Cart" style="stroke: #000000; stroke-width: 0.5;"/><polygon fill="#000000" points="466.083,566.5,457.083,562.5,461.083,566.5,457.083,570.5,466.083,566.5" style="stroke: #000000; stroke-width: 0.5;"/><!--MD5=[d25cf63d317b2f6a114ecc239ccd34ee]
link connectDB to Cart--><path d="M356.063,319.255 C369.79,322.704 383.953,328.569 394.283,338.5 C436.129,378.727 413.135,408.846 435.283,462.5 C448.332,494.112 466.884,529.432 477.94,549.706 " fill="none" id="connectDB-&gt;Cart" style="stroke: #000000; stroke-width: 0.5;"/><polygon fill="#000000" points="480.448,554.283,479.6316,544.468,478.0455,549.898,472.6156,548.312,480.448,554.283" style="stroke: #000000; stroke-width: 0.5;"/><!--MD5=[63c27fc7f9b547f75fb656a5497db9af]
link connectDB to Home--><path d="M359.479,314.5 C389.708,314.5 427.743,314.5 454.43,314.5 " fill="none" id="connectDB-&gt;Home" style="stroke: #000000; stroke-width: 0.5;"/><polygon fill="#000000" points="459.611,314.5,450.611,310.5,454.611,314.5,450.611,318.5,459.611,314.5" style="stroke: #000000; stroke-width: 0.5;"/><!--MD5=[68ef80bc59e23e2accae3928a6286c91]
link connectDB to HomeDetail--><path d="M344.96,305.282 C360.095,301.149 378.101,296.164 394.283,291.5 C412.343,286.295 432.308,280.314 449.095,275.22 " fill="none" id="connectDB-&gt;HomeDetail" style="stroke: #000000; stroke-width: 0.5;"/><polygon fill="#000000" points="454.197,273.669,444.4226,272.4602,449.4133,275.1236,446.7499,280.1142,454.197,273.669" style="stroke: #000000; stroke-width: 0.5;"/><!--MD5=[2f03cce441c0ed6f67b7d919bb44c502]
link controllers/home to Home--><path d="M353.059,351.763 C385.51,342.754 429.467,330.551 458.096,322.603 " fill="none" id="controllers/home-&gt;Home" style="stroke: #000000; stroke-width: 0.5;"/><polygon fill="#000000" points="463.257,321.17,453.5151,319.7222,458.4391,322.507,455.6543,327.4309,463.257,321.17" style="stroke: #000000; stroke-width: 0.5;"/><!--MD5=[db47eb51af6000c35c01adc5f3658dc9]
link FacilityController to Facility--><path d="M375.503,773.5 C400.459,773.5 428.124,773.5 449.688,773.5 " fill="none" id="FacilityController-&gt;Facility" style="stroke: #000000; stroke-width: 0.5;"/><polygon fill="#000000" points="454.752,773.5,445.752,769.5,449.752,773.5,445.752,777.5,454.752,773.5" style="stroke: #000000; stroke-width: 0.5;"/><!--MD5=[4da01541973b691d050dbf28aa12feb6]
link FilterController to HomeDetail--><path d="M350.833,226.392 C379.677,234.236 418.431,244.775 447.267,252.617 " fill="none" id="FilterController-&gt;HomeDetail" style="stroke: #000000; stroke-width: 0.5;"/><polygon fill="#000000" points="452.168,253.95,444.5324,247.7292,447.3431,252.6384,442.4339,255.449,452.168,253.95" style="stroke: #000000; stroke-width: 0.5;"/><!--MD5=[c1cc4d6af0dfb662ffb74f72d5fd5d04]
link HistoryController to Order--><path d="M366.628,422.41 C396.046,426.577 431.042,431.534 455.749,435.033 " fill="none" id="HistoryController-&gt;Order" style="stroke: #000000; stroke-width: 0.5;"/><polygon fill="#000000" points="460.859,435.757,452.509,430.5342,455.9084,435.0557,451.3869,438.4551,460.859,435.757" style="stroke: #000000; stroke-width: 0.5;"/><!--MD5=[f4a31f854f8ed68b007c789c123f94cd]
link HomeController to Home--><path d="M362.112,173.951 C373.712,177.791 385.253,183.376 394.283,191.5 C428.47,222.257 404.202,252.607 435.283,286.5 C442.182,294.024 451.58,299.931 460.49,304.34 " fill="none" id="HomeController-&gt;Home" style="stroke: #000000; stroke-width: 0.5;"/><polygon fill="#000000" points="465.371,306.636,458.9321,299.1835,460.8473,304.5063,455.5245,306.4215,465.371,306.636" style="stroke: #000000; stroke-width: 0.5;"/><!--MD5=[442c0ffbe9d22a4b3b8b73802aa70bbc]
link HomeController to HomeDetail--><path d="M357.823,175.313 C370.281,179.174 383.306,184.428 394.283,191.5 C417.305,206.332 413.534,220.856 435.283,237.5 C441.404,242.185 448.502,246.389 455.448,249.981 " fill="none" id="HomeController-&gt;HomeDetail" style="stroke: #000000; stroke-width: 0.5;"/><polygon fill="#000000" points="460.219,252.369,453.9619,244.7632,455.748,250.1306,450.3805,251.9168,460.219,252.369" style="stroke: #000000; stroke-width: 0.5;"/><!--MD5=[7755c979cab670f328318b08d7999ec2]
link HomeController to mailer--><path d="M373.01,165.147 C399.953,164.995 430.45,164.822 453.158,164.693 " fill="none" id="HomeController-&gt;mailer" style="stroke: #000000; stroke-width: 0.5;"/><polygon fill="#000000" points="458.171,164.665,449.1483,160.7165,453.1711,164.6936,449.194,168.7164,458.171,164.665" style="stroke: #000000; stroke-width: 0.5;"/><!--MD5=[a7cd6f32cda703f42c358e5572d5f637]
link HomeController to Order--><path d="M363.778,173.415 C375.051,177.279 386.027,183.009 394.283,191.5 C441.267,239.823 410.746,274.726 435.283,337.5 C447.408,368.521 465.939,402.633 477.295,422.499 " fill="none" id="HomeController-&gt;Order" style="stroke: #000000; stroke-width: 0.5;"/><polygon fill="#000000" points="479.881,426.994,478.8613,417.1981,477.3882,422.6597,471.9265,421.1866,479.881,426.994" style="stroke: #000000; stroke-width: 0.5;"/><!--MD5=[20042c0799a4b6a9337c9d386d0af8b6]
link HomeController to Review--><path d="M351.719,176.865 C383.102,185.577 425.818,197.436 454.856,205.498 " fill="none" id="HomeController-&gt;Review" style="stroke: #000000; stroke-width: 0.5;"/><polygon fill="#000000" points="459.753,206.857,452.1503,200.5961,454.9351,205.52,450.0111,208.3048,459.753,206.857" style="stroke: #000000; stroke-width: 0.5;"/><!--MD5=[71a7e9a9f4f847608f7d1270ef547b39]
link HomeController to User--><path d="M351.719,154.135 C385.657,144.713 432.848,131.612 461.661,123.613 " fill="none" id="HomeController-&gt;User" style="stroke: #000000; stroke-width: 0.5;"/><polygon fill="#000000" points="466.82,122.181,457.0777,120.7359,462.0024,123.5193,459.219,128.444,466.82,122.181" style="stroke: #000000; stroke-width: 0.5;"/><!--MD5=[3ccb3205bec6c13f303b929426784668]
link OrderController to Cart--><path d="M356.165,653.198 C368.872,649.445 382.44,644.588 394.283,638.5 C424.503,622.964 454.733,597.201 472.19,581.073 " fill="none" id="OrderController-&gt;Cart" style="stroke: #000000; stroke-width: 0.5;"/><polygon fill="#000000" points="475.926,577.587,466.6163,580.8009,472.2697,580.9975,472.0731,586.651,475.926,577.587" style="stroke: #000000; stroke-width: 0.5;"/><!--MD5=[53a311eeb75aab4a09c2ac83f167443d]
link OrderController to Order--><path d="M362.962,655.428 C374.269,651.732 385.465,646.346 394.283,638.5 C428.638,607.931 415.881,585.193 435.283,543.5 C449.633,512.662 467.619,477.366 478.239,456.838 " fill="none" id="OrderController-&gt;Order" style="stroke: #000000; stroke-width: 0.5;"/><polygon fill="#000000" points="480.645,452.196,472.9512,458.3446,478.3435,456.6348,480.0533,462.0271,480.645,452.196" style="stroke: #000000; stroke-width: 0.5;"/><!--MD5=[bc0d972716ca2906eb9864bf833bd50d]
link OrderController to OrderDetail--><path d="M373.01,663.5 C391.608,663.5 411.898,663.5 430.152,663.5 " fill="none" id="OrderController-&gt;OrderDetail" style="stroke: #000000; stroke-width: 0.5;"/><polygon fill="#000000" points="435.243,663.5,426.243,659.5,430.243,663.5,426.243,667.5,435.243,663.5" style="stroke: #000000; stroke-width: 0.5;"/><!--MD5=[1cdc8a61138966c2c786c5f80e078532]
link <b>OrderId</b> to Order--><path d="M349.081,458.292 C380.996,453.953 425.908,447.846 455.771,443.785 " fill="none" id="&lt;b&gt;OrderId&lt;/b&gt;-&gt;Order" style="stroke: #000000; stroke-width: 1.0;"/><polygon fill="#000000" points="460.798,443.101,451.3416,440.3486,455.8435,443.7739,452.4182,448.2758,460.798,443.101" style="stroke: #000000; stroke-width: 1.0;"/><!--MD5=[993b56d22ac47fd8cc89688ad268046f]
link OrdersDetailsController to OrderDetail--><path d="M360.888,702.8863 C389.17,694.0733 423.924,683.244 449.826,675.172 " fill="none" id="OrdersDetailsController-&gt;OrderDetail" style="stroke: #000000; stroke-width: 0.5;"/><polygon fill="#000000" points="454.884,673.596,445.1015,672.4544,450.1104,675.0834,447.4814,680.0922,454.884,673.596" style="stroke: #000000; stroke-width: 0.5;"/><!--MD5=[b316a675e3d600b91ea4bb47179b8cc7]
link ReviewController to Home--><path d="M353.508,277.362 C385.972,286.374 429.753,298.528 458.245,306.439 " fill="none" id="ReviewController-&gt;Home" style="stroke: #000000; stroke-width: 0.5;"/><polygon fill="#000000" points="463.382,307.865,455.7798,301.6035,458.5642,306.5277,453.64,309.3121,463.382,307.865" style="stroke: #000000; stroke-width: 0.5;"/><!--MD5=[0436fcd7b11004eb053682675108d662]
link ReviewController to HomeDetail--><path d="M376.254,264.758 C393.858,264.559 412.76,264.344 429.888,264.15 " fill="none" id="ReviewController-&gt;HomeDetail" style="stroke: #000000; stroke-width: 0.5;"/><polygon fill="#000000" points="435.143,264.091,426.0979,260.1941,430.1433,264.1482,426.1893,268.1936,435.143,264.091" style="stroke: #000000; stroke-width: 0.5;"/><!--MD5=[fbf2bd2fa67d36b298341e208efd09ac]
link ReviewController to Order--><path d="M362.138,275.255 C373.479,279.043 384.897,284.278 394.283,291.5 C417.876,309.653 459.928,386.906 478.289,422.013 " fill="none" id="ReviewController-&gt;Order" style="stroke: #000000; stroke-width: 0.5;"/><polygon fill="#000000" points="480.616,426.477,480.0029,416.6472,478.3048,422.0432,472.9089,420.3451,480.616,426.477" style="stroke: #000000; stroke-width: 0.5;"/><!--MD5=[ad60faa5aaf821ba299f657f8b243999]
link ReviewController to Review--><path d="M352.164,253.543 C383.66,244.442 426.377,232.099 455.285,223.746 " fill="none" id="ReviewController-&gt;Review" style="stroke: #000000; stroke-width: 0.5;"/><polygon fill="#000000" points="460.158,222.338,450.4012,220.9942,455.3546,223.7263,452.6225,228.6797,460.158,222.338" style="stroke: #000000; stroke-width: 0.5;"/><!--MD5=[91a558b14325b41e8ce2db213baae0e4]
link routes/home to controllers/home--><path d="M155.149,454.916 C165.187,451.365 175.6,446.652 184.283,440.5 C208.012,423.685 201.243,405.868 225.283,389.5 C234.019,383.552 244.178,378.916 254.34,375.319 " fill="none" id="routes/home-&gt;controllers/home" style="stroke: #000000; stroke-width: 0.5;"/><polygon fill="#000000" points="259.322,373.635,249.515,372.7279,254.5853,375.2363,252.077,380.3066,259.322,373.635" style="stroke: #000000; stroke-width: 0.5;"/><!--MD5=[f5c62a10e8d6fa59206150a5f64c3675]
link <b>server</b> to apiCart--><path d="M78.9572,190.517 C59.3903,194.273 37.0153,202.523 25.7827,220.5 C7.5308,249.711 7.5308,501.289 25.7827,530.5 C36.2907,547.317 56.5497,555.622 75.1388,559.698 " fill="none" id="&lt;b&gt;server&lt;/b&gt;-&gt;apiCart" style="stroke: #000000; stroke-width: 1.0;"/><polygon fill="#000000" points="80.3282,560.74,72.2908,555.0479,75.4259,559.7565,70.7172,562.8916,80.3282,560.74" style="stroke: #000000; stroke-width: 1.0;"/><!--MD5=[e8d2268cf1591ecfdd272559d3ff0923]
link <b>server</b> to apiFacility--><path d="M78.9572,190.517 C59.3903,194.273 37.0153,202.523 25.7827,220.5 C10.8574,244.387 10.8574,703.6129 25.7827,727.5 C36.2197,744.2037 55.1687,754.5627 72.9526,760.9131 " fill="none" id="&lt;b&gt;server&lt;/b&gt;-&gt;apiFacility" style="stroke: #000000; stroke-width: 1.0;"/><polygon fill="#000000" points="77.9296,762.5999,70.6899,755.9226,73.1942,760.9949,68.1219,763.4992,77.9296,762.5999" style="stroke: #000000; stroke-width: 1.0;"/><!--MD5=[91db16c2a85d9aab916fd3bf32e4f233]
link <b>server</b> to apiFilter--><path d="M78.9572,190.517 C59.3903,194.273 37.0153,202.523 25.7827,220.5 C19.6595,230.3 19.6595,236.7 25.7827,246.5 C35.8094,262.547 54.7143,270.843 72.5752,275.111 " fill="none" id="&lt;b&gt;server&lt;/b&gt;-&gt;apiFilter" style="stroke: #000000; stroke-width: 1.0;"/><polygon fill="#000000" points="77.5769,276.211,69.6463,270.371,72.6936,275.1369,67.9277,278.1843,77.5769,276.211" style="stroke: #000000; stroke-width: 1.0;"/><!--MD5=[be714e2a40d6213f42f30296a8f7ef68]
link <b>server</b> to apiHistoryBooking--><path d="M78.9572,190.517 C59.3903,194.273 37.0153,202.523 25.7827,220.5 C10.5924,244.811 10.5924,454.189 25.7827,478.5 C32.7556,489.66 43.879,497.36 55.9483,502.674 " fill="none" id="&lt;b&gt;server&lt;/b&gt;-&gt;apiHistoryBooking" style="stroke: #000000; stroke-width: 1.0;"/><polygon fill="#000000" points="60.7971,504.666,53.9924,497.5459,56.1722,502.7659,50.9522,504.9458,60.7971,504.666" style="stroke: #000000; stroke-width: 1.0;"/><!--MD5=[67b00f0a56712e9a472d89ad1d0e0597]
link <b>server</b> to apiHome--><path d="M115.283,200.53 C115.283,205.346 115.283,210.162 115.283,214.977 " fill="none" id="&lt;b&gt;server&lt;/b&gt;-&gt;apiHome" style="stroke: #000000; stroke-width: 1.0;"/><polygon fill="#000000" points="115.283,220.203,119.283,211.203,115.283,215.203,111.283,211.203,115.283,220.203" style="stroke: #000000; stroke-width: 1.0;"/><!--MD5=[01a16c341ed6259fdde8a761adefcdf2]
link <b>server</b> to apiOrder--><path d="M78.9572,190.517 C59.3903,194.273 37.0153,202.523 25.7827,220.5 C2.1141,258.38 2.1141,584.62 25.7827,622.5 C35.2465,637.646 52.6198,645.888 69.5591,650.354 " fill="none" id="&lt;b&gt;server&lt;/b&gt;-&gt;apiOrder" style="stroke: #000000; stroke-width: 1.0;"/><polygon fill="#000000" points="74.793,651.622,66.9884,645.6146,69.9337,650.4442,65.104,653.3895,74.793,651.622" style="stroke: #000000; stroke-width: 1.0;"/><!--MD5=[940e3b37f8b4a9d481e13cdde73b911a]
link <b>server</b> to apiOrdersDetails--><path d="M78.9572,190.517 C59.3903,194.273 37.0153,202.523 25.7827,220.5 C-0.5942,262.715 -0.5942,626.285 25.7827,668.5 C34.4749,682.411 49.0709,691.9218 63.9808,698.3811 " fill="none" id="&lt;b&gt;server&lt;/b&gt;-&gt;apiOrdersDetails" style="stroke: #000000; stroke-width: 1.0;"/><polygon fill="#000000" points="68.6119,700.2893,61.8145,693.1622,63.989,698.3845,58.7667,700.559,68.6119,700.2893" style="stroke: #000000; stroke-width: 1.0;"/><!--MD5=[84e41fec9e5b484d50b01701176764c9]
link <b>server</b> to apiReview--><path d="M78.9572,190.517 C59.3903,194.273 37.0153,202.523 25.7827,220.5 C6.471,251.407 6.471,353.593 25.7827,384.5 C34.4512,398.373 49.7558,406.454 65.2845,411.146 " fill="none" id="&lt;b&gt;server&lt;/b&gt;-&gt;apiReview" style="stroke: #000000; stroke-width: 1.0;"/><polygon fill="#000000" points="70.1038,412.496,62.5167,406.2162,65.2892,411.1471,60.3584,413.9196,70.1038,412.496" style="stroke: #000000; stroke-width: 1.0;"/><!--MD5=[0bf8eb49abf8d52a9ca0a92270edf4b5]
link <b>server</b> to apiTest--><path d="M78.9572,190.517 C59.3903,194.273 37.0153,202.523 25.7827,220.5 C4.8225,254.046 4.8225,542.954 25.7827,576.5 C36.2907,593.317 56.5497,601.622 75.1388,605.698 " fill="none" id="&lt;b&gt;server&lt;/b&gt;-&gt;apiTest" style="stroke: #000000; stroke-width: 1.0;"/><polygon fill="#000000" points="80.3282,606.74,72.2908,601.0479,75.4259,605.7565,70.7172,608.8916,80.3282,606.74" style="stroke: #000000; stroke-width: 1.0;"/><!--MD5=[a95b10a4b23313e542f14e0dfb93c3ff]
link <b>server</b> to apiUser--><path d="M78.9572,190.517 C59.3903,194.273 37.0153,202.523 25.7827,220.5 C11.8877,242.738 11.8877,316.262 25.7827,338.5 C36.05,354.932 55.6269,363.237 73.8592,367.412 " fill="none" id="&lt;b&gt;server&lt;/b&gt;-&gt;apiUser" style="stroke: #000000; stroke-width: 1.0;"/><polygon fill="#000000" points="78.9572,368.483,70.9723,362.7175,74.0641,367.4547,69.3269,370.5465,78.9572,368.483" style="stroke: #000000; stroke-width: 1.0;"/><!--MD5=[930de082d630bf8202e6862d44c398ee]
link <b>server</b> to connectDB--><path d="M149.028,193.12 C161.179,196.519 174.395,201.929 184.283,210.5 C214.771,236.929 194.048,265.956 225.283,291.5 C234.856,299.329 246.898,304.502 258.833,307.917 " fill="none" id="&lt;b&gt;server&lt;/b&gt;-&gt;connectDB" style="stroke: #000000; stroke-width: 1.0;"/><polygon fill="#000000" points="263.934,309.275,256.2649,303.0956,259.1021,307.9895,254.2081,310.8267,263.934,309.275" style="stroke: #000000; stroke-width: 1.0;"/><!--MD5=[dadf0eba804de1b6f0420f59a6b4a914]
link <b>server</b> to routes/home--><path d="M78.9572,190.517 C59.3903,194.273 37.0153,202.523 25.7827,220.5 C1.0543,260.076 1.0543,390.924 25.7827,430.5 C33.775,443.291 47.3465,451.286 61.5377,456.278 " fill="none" id="&lt;b&gt;server&lt;/b&gt;-&gt;routes/home" style="stroke: #000000; stroke-width: 1.0;"/><polygon fill="#000000" points="66.3669,457.859,59.0571,451.2585,61.6148,456.3041,56.5692,458.8619,66.3669,457.859" style="stroke: #000000; stroke-width: 1.0;"/><!--MD5=[e773c70f2fb0f3e8d24731ab268860c4]
link <b>server</b> to viewEngine--><path d="M78.9572,190.517 C59.3903,194.273 37.0153,202.523 25.7827,220.5 C8.8261,247.638 8.8261,265.362 25.7827,292.5 C34.14,305.875 48.6653,313.866 63.6129,318.627 " fill="none" id="&lt;b&gt;server&lt;/b&gt;-&gt;viewEngine" style="stroke: #000000; stroke-width: 1.0;"/><polygon fill="#000000" points="68.69,320.121,61.1852,313.7431,63.8933,318.7096,58.9269,321.4178,68.69,320.121" style="stroke: #000000; stroke-width: 1.0;"/><!--MD5=[e1e8b82ab0e321b38908509966963f39]
link TestController to Home--><path d="M363.114,608.455 C374.684,604.857 385.96,599.237 394.283,590.5 C449.085,532.975 407.932,491.095 435.283,416.5 C446.748,385.229 465.483,351.194 477.059,331.411 " fill="none" id="TestController-&gt;Home" style="stroke: #000000; stroke-width: 0.5;"/><polygon fill="#000000" points="479.697,326.937,471.6798,332.6575,477.1572,331.2439,478.5708,336.7213,479.697,326.937" style="stroke: #000000; stroke-width: 0.5;"/><!--MD5=[5710ebbaa1526daccec5c965cb0aee1e]
link TestController to Order--><path d="M359.546,606.931 C371.732,603.378 384.191,598.161 394.283,590.5 C418.456,572.149 460.553,492.509 478.63,456.862 " fill="none" id="TestController-&gt;Order" style="stroke: #000000; stroke-width: 0.5;"/><polygon fill="#000000" points="480.916,452.336,473.2878,458.5659,478.6617,456.799,480.4286,462.1728,480.916,452.336" style="stroke: #000000; stroke-width: 0.5;"/><!--MD5=[28b6d1bed4d0273bf8dac99d44029dc0]
link TestController to OrderDetail--><path d="M349.081,625.132 C378.121,633.194 417.921,644.244 447.354,652.415 " fill="none" id="TestController-&gt;OrderDetail" style="stroke: #000000; stroke-width: 0.5;"/><polygon fill="#000000" points="452.354,653.803,444.753,647.54,447.5364,652.4647,442.6117,655.2481,452.354,653.803" style="stroke: #000000; stroke-width: 0.5;"/><!--MD5=[f162b3d505201403ddd592e1584c8911]
link UserController to mailer--><path d="M349.954,126.375 C382.5,135.41 428.103,148.071 457.669,156.279 " fill="none" id="UserController-&gt;mailer" style="stroke: #000000; stroke-width: 0.5;"/><polygon fill="#000000" points="462.634,157.657,455.0313,151.3961,457.8161,156.32,452.8921,159.1048,462.634,157.657" style="stroke: #000000; stroke-width: 0.5;"/><!--MD5=[11e5b9a9bd37746b63b8fb5dbd005d0d]
link UserController to User--><path d="M370.046,115.836 C400.212,116.007 435.461,116.206 459.372,116.342 " fill="none" id="UserController-&gt;User" style="stroke: #000000; stroke-width: 0.5;"/><polygon fill="#000000" points="464.595,116.371,455.618,112.3196,459.5951,116.3424,455.5723,120.3195,464.595,116.371" style="stroke: #000000; stroke-width: 0.5;"/><!--MD5=[defac254a81fa95cdc59240f39d983a4]
link <b>Address</b> to <b>hotel</b>--><!--MD5=[234462fed7f62e9cf4bc1c48613e8eec]
link <b>hotel</b> to <b>Regulation</b>--><!--MD5=[f95c59f16e60a5d6d370d9ef2e61bf40]
link <b>Address</b> to <b>useFetch</b>--><!--MD5=[9203f43c6765a53962e81e9d211fa63e]
link <b>useFetch</b> to <b>Voucher</b>--><script type="text/plantuml"><![CDATA[MD5=[2ec95479c8118bf1e2a3611e9ca689ef]
@startuml

scale max 1920 width
left to right direction

skinparam nodesep 20
skinparam ranksep 41
skinparam monochrome true
skinparam shadowing false
skinparam defaultFontName Tahoma
skinparam defaultFontSize 12
skinparam roundCorner 6
skinparam dpi 150
skinparam arrowColor black
skinparam arrowThickness 0.5
skinparam packageTitleAlignment left

skinparam usecase {
  borderThickness 0.5
}

skinparam rectangle {
  borderThickness 0.5
}

skinparam component {
  borderThickness 1
}


(<b>Address</b>)
(apiCart)
(apiFacility)
(apiFilter)
(apiHistoryBooking)
(apiHome)
(apiOrder)
(apiOrdersDetails)
(apiReview)
(apiTest)
(apiUser)
(Cart)
(CartController)
(connectDB)
(controllers/home)
(Facility)
(FacilityController)
(FilterController)
(HistoryController)
(Home)
(HomeController)
(HomeDetail)
(<b>hotel</b>)
(mailer)
(MiddewareController)
(Order)
(OrderController)
(OrderDetail)
(<b>OrderId</b>)
(OrdersDetailsController)
(<b>Regulation</b>)
(Review)
(ReviewController)
(routes/home)
(<b>server</b>)
(TestController)
(<b>useFetch</b>)
(User)
(UserController)
(viewEngine)
(<b>Voucher</b>)


(apiCart) --> (CartController)
(apiCart) --> (MiddewareController)
(apiFacility) --> (FacilityController)
(apiFilter) --> (FilterController)
(apiHistoryBooking) --> (HistoryController)
(apiHistoryBooking) --> (MiddewareController)
(apiHome) --> (HomeController)
(apiOrder) --> (MiddewareController)
(apiOrder) --> (OrderController)
(apiOrdersDetails) --> (OrdersDetailsController)
(apiReview) --> (MiddewareController)
(apiReview) --> (ReviewController)
(apiTest) --> (TestController)
(apiUser) --> (MiddewareController)
(apiUser) --> (UserController)
(CartController) --> (Cart)
(connectDB) --> (Cart)
(connectDB) --> (Home)
(connectDB) --> (HomeDetail)
(controllers/home) --> (Home)
(FacilityController) --> (Facility)
(FilterController) --> (HomeDetail)
(HistoryController) --> (Order)
(HomeController) --> (Home)
(HomeController) --> (HomeDetail)
(HomeController) --> (mailer)
(HomeController) --> (Order)
(HomeController) --> (Review)
(HomeController) --> (User)
(OrderController) --> (Cart)
(OrderController) --> (Order)
(OrderController) --> (OrderDetail)
(<b>OrderId</b>) --[thickness=1]> (Order)
(OrdersDetailsController) --> (OrderDetail)
(ReviewController) --> (Home)
(ReviewController) --> (HomeDetail)
(ReviewController) --> (Order)
(ReviewController) --> (Review)
(routes/home) --> (controllers/home)
(<b>server</b>) -[thickness=1]> (apiCart)
(<b>server</b>) -[thickness=1]> (apiFacility)
(<b>server</b>) -[thickness=1]> (apiFilter)
(<b>server</b>) -[thickness=1]> (apiHistoryBooking)
(<b>server</b>) -[thickness=1]> (apiHome)
(<b>server</b>) -[thickness=1]> (apiOrder)
(<b>server</b>) -[thickness=1]> (apiOrdersDetails)
(<b>server</b>) -[thickness=1]> (apiReview)
(<b>server</b>) -[thickness=1]> (apiTest)
(<b>server</b>) -[thickness=1]> (apiUser)
(<b>server</b>) -[thickness=1]> (connectDB)
(<b>server</b>) -[thickness=1]> (routes/home)
(<b>server</b>) -[thickness=1]> (viewEngine)
(TestController) --> (Home)
(TestController) --> (Order)
(TestController) --> (OrderDetail)
(UserController) --> (mailer)
(UserController) --> (User)

@enduml


' View and edit on https://arkit.pro
]]></script></g></svg>